<svg xmlns="http://www.w3.org/2000/svg" xmlns:xlink="http://www.w3.org/1999/xlink" width="36" height="36" viewBox="0 0 36 36">
  <defs>
    <clipPath id="clip-coin">
      <rect width="36" height="36"/>
    </clipPath>
  </defs>
  <g id="coin" clip-path="url(#clip-coin)">
    <g id="coin-2" data-name="coin" transform="translate(1.063 2.046)">
      <path id="Path_1" data-name="Path 1" d="M16.937,30.307A14.524,14.524,0,0,1,2.28,15.954,14.524,14.524,0,0,1,16.937,1.6,14.524,14.524,0,0,1,31.593,15.954,14.524,14.524,0,0,1,16.937,30.307Z" transform="translate(0 0)" fill="none" stroke="#131313" stroke-miterlimit="10" stroke-width="4.56"/>
      <ellipse id="Ellipse_1" data-name="Ellipse 1" cx="12.26" cy="11.951" rx="12.26" ry="11.951" transform="translate(4.676 4.002)" fill="#131313"/>
      <path id="Path_2" data-name="Path 2" d="M158.761,152.57a6.882,6.882,0,1,0,6.933,6.882A6.908,6.908,0,0,0,158.761,152.57Zm0,12.909a6.027,6.027,0,1,1,6.069-6.026,6.056,6.056,0,0,1-6.069,6.026Z" transform="translate(-141.825 -143.499)" fill="#ede9e2"/>
      <path id="Path_3" data-name="Path 3" d="M263.54,263v1.53a.811.811,0,0,0,.3-.218.86.86,0,0,0,.214-.6.715.715,0,0,0-.14-.472A.967.967,0,0,0,263.54,263Z" transform="translate(-246.203 -246.777)" fill="#ede9e2"/>
      <path id="Path_4" data-name="Path 4" d="M177.683,172.75a5.54,5.54,0,1,0,5.584,5.539A5.568,5.568,0,0,0,177.683,172.75Zm1.651,8.032a1.894,1.894,0,0,1-1.149.568v.725h-.853v-.725a2.561,2.561,0,0,1-.742-.23,1.7,1.7,0,0,1-.658-.622,2.153,2.153,0,0,1-.315-1.023l-.013-.2,1.125-.209.033.226a1.621,1.621,0,0,0,.246.725.943.943,0,0,0,.325.266v-1.768a3.286,3.286,0,0,1-.779-.318,1.514,1.514,0,0,1-.606-.6,1.853,1.853,0,0,1,.4-2.23,1.928,1.928,0,0,1,.984-.409v-.36h.853v.359a1.863,1.863,0,0,1,.9.38,1.808,1.808,0,0,1,.635,1.184l.031.216-1.161.173-.033-.217a.982.982,0,0,0-.207-.517.634.634,0,0,0-.163-.128v1.538a4.333,4.333,0,0,1,.574.175,1.952,1.952,0,0,1,.606.394,1.634,1.634,0,0,1,.371.565,1.875,1.875,0,0,1,.126.7,1.9,1.9,0,0,1-.528,1.361Z" transform="translate(-160.746 -162.336)" fill="#ede9e2"/>
      <path id="Path_5" data-name="Path 5" d="M243.991,222.577a.675.675,0,0,0,.151.456.844.844,0,0,0,.3.211V221.91a.732.732,0,0,0-.266.188A.682.682,0,0,0,243.991,222.577Z" transform="translate(-227.776 -207.971)" fill="#ede9e2"/>
    </g>
  </g>
</svg>
